<svg width="20" height="20" viewBox="0 0 20 20" fill="none" xmlns="http://www.w3.org/2000/svg">
<path fill-rule="evenodd" clip-rule="evenodd" d="M17.0511 18.9611C17.5067 19.4281 18.2426 19.4281 18.6982 18.9611C19.1538 18.4941 19.1538 17.7585 18.6982 17.2915L15.1004 13.6954C16.1167 12.3293 16.7241 10.6363 16.7241 8.80325C16.7241 4.28476 13.0562 0.618591 8.53557 0.618591C4.01496 0.618591 0.347076 4.28476 0.347076 8.80325C0.347076 13.3217 4.01496 16.9879 8.53557 16.9879C10.3695 16.9879 12.075 16.3808 13.4417 15.3533L17.0511 18.9611ZM2.68331 8.80321C2.68331 5.58072 5.29989 2.95369 8.53557 2.95369C11.7596 2.95369 14.3762 5.56904 14.3762 8.80321C14.3762 12.0257 11.7596 14.6527 8.53557 14.6527C5.31157 14.6411 2.68331 12.0257 2.68331 8.80321Z" fill="#7D7C82"/>
</svg>
