<?xml version="1.0" encoding="UTF-8" standalone="no"?>
<svg xmlns="http://www.w3.org/2000/svg" xmlns:xlink="http://www.w3.org/1999/xlink" width="48" height="48">
  <defs>
    <linearGradient id="d">
      <stop offset="0" stop-opacity=".15686275"/>
      <stop offset="1" stop-color="#fff" stop-opacity="0"/>
    </linearGradient>
    <linearGradient id="c">
      <stop offset="0" stop-color="#fff"/>
      <stop offset="1" stop-color="#fff" stop-opacity="0"/>
    </linearGradient>
    <linearGradient id="b">
      <stop offset="0" stop-color="#1b873d"/>
      <stop offset="1" stop-color="#1b873d" stop-opacity="0"/>
    </linearGradient>
    <linearGradient id="a">
      <stop offset="0" stop-color="#1b873d"/>
      <stop offset="1" stop-color="#1b873d"/>
    </linearGradient>
    <linearGradient xlink:href="#a" id="e" x1="617.05359" x2="617.05359" y1="286.55862" y2="256.38004" gradientUnits="userSpaceOnUse"/>
    <linearGradient xlink:href="#b" id="f" x1="601.96429" x2="632.14288" y1="271.46933" y2="271.46933" gradientUnits="userSpaceOnUse"/>
    <linearGradient xlink:href="#c" id="g" x1="29.689638" x2="37.865501" y1="21.528694" y2="35.689705" gradientTransform="rotate(-90 -8.25001 130.75002)" gradientUnits="userSpaceOnUse"/>
    <linearGradient xlink:href="#d" id="h" x1="97.749977" x2="97.75" y1="38.500015" y2="31.46875" gradientTransform="translate(-212.74999 78.499993)" gradientUnits="userSpaceOnUse"/>
  </defs>
  <g fill-rule="evenodd" transform="translate(139.00001 -74.499996)">
    <path fill="url(#e)" d="M632.14287 271.46933c0 8.33358-6.7557 15.08929-15.08928 15.08929-8.33358 0-15.08929-6.75571-15.08929-15.08929 0-8.33358 6.75571-15.08929 15.08929-15.08929 8.33358 0 15.08928 6.75571 15.08928 15.08929z" transform="translate(-871.5296 -234.33104) scale(1.22604)"/>
    <path fill="#1b873d" d="M-97.00001966 98.50002088c0 9.94112258-8.05887048 18.00000498-17.99999306 18.00000498-9.94112258 0-18.00000499-8.0588824-18.00000499-18.00000498 0-9.94112259 8.0588824-18.000005 18.00000499-18.000005 9.94112258 0 17.99999306 8.05888241 17.99999306 18.000005z"/>
    <path fill="url(#f)" d="M632.14287 271.46933c0 8.33358-6.7557 15.08929-15.08928 15.08929-8.33358 0-15.08929-6.75571-15.08929-15.08929 0-8.33358 6.75571-15.08929 15.08929-15.08929 8.33358 0 15.08928 6.75571 15.08928 15.08929z" transform="rotate(90 423.209215 -214.373625) scale(1.1929)"/>
    <path fill="#fff" d="m-114.99999335 85.72620677 3.7628957 7.624468 8.41409067 1.22270012-6.08849366 5.93478912 1.43729805 8.38011014-7.52579131-3.9566053-7.52579171 3.9566053 1.43729855-8.38011014-6.08849313-5.93478912 8.41409083-1.22270012z"/>
    <path fill="url(#g)" d="M-123.25001 82.531273c.44113-.0253.86503-.0312 1.3125-.0312 12.6631 0 22.9375 10.2744 22.9375 22.937507 0 .48159-.0332.96328-.0625 1.4375 1.3165-2.50103 2.0625-5.35229 2.0625-8.375001 0-9.941126-8.05887-18.000006-18-18.000006-2.98137 0-5.77382.7482-8.25 2.03125z" opacity=".1"/>
    <path fill="url(#h)" d="M-115 109.96875c-4.58433 0-8.3125 1.55468-8.3125 3.5 0 1.13411 1.28817 2.13701 3.25 2.78125.47532.13948.94676.27458 1.4375.375.58588.11989 1.17615.2198 1.78125.28125.60511.0615 1.22243.0937 1.84375.0937.62132 0 1.23865-.0323 1.84375-.0937.60511-.0614 1.19537-.16136 1.78125-.28125.49075-.10042.96219-.23552 1.4375-.375 1.96183-.64424 3.25-1.64714 3.25-2.78125 0-1.94532-3.72817-3.5-8.3125-3.5z"/>
  </g>
</svg>