<svg width="19" height="22" viewBox="0 0 19 22" fill="none" xmlns="http://www.w3.org/2000/svg">
<path fill-rule="evenodd" clip-rule="evenodd" d="M9.74854 20.9986C11.506 20.1048 18.4338 16.1597 18.4338 9.51085C18.4338 4.49236 14.3656 0.424072 9.34708 0.424072C4.3286 0.424072 0.260315 4.49236 0.260315 9.51085C0.260315 16.1597 7.18821 20.1048 8.94562 20.9986C9.19952 21.1277 9.49464 21.1277 9.74854 20.9986ZM9.34709 13.4052C11.4979 13.4052 13.2414 11.6616 13.2414 9.51084C13.2414 7.36006 11.4979 5.61651 9.34709 5.61651C7.19631 5.61651 5.45276 7.36006 5.45276 9.51084C5.45276 11.6616 7.19631 13.4052 9.34709 13.4052Z" fill="#FF7400"/>
</svg>
